<svg xmlns="http://www.w3.org/2000/svg" viewBox="0 0 280 80"><title>HAXART</title><g id="Layer_2" data-name="Layer 2"><g id="Layer_1-2" data-name="Layer 1"><path d="M152,0h-8V80h8V40h24V80h8V0H152Zm24,32H152V8h24Z"/><path d="M224,0H192V80h8V40h2.34L224,61.66V80h8V58.34L229.66,56l-16-16H232V0Zm0,32H200V8h24Z"/><polygon points="240 8 256 8 256 80 264 80 264 8 280 8 280 0 240 0 240 8"/><polygon points="32 32 8 32 8 0 0 0 0 32 0 40 0 80 8 80 8 40 32 40 32 80 40 80 40 40 40 32 40 0 32 0 32 32"/><path d="M56,0H48V80h8V40H80V80h8V0H56ZM80,32H56V8H80Z"/><polygon points="128 0 128 18.34 116 30.34 104 18.34 104 0 96 0 96 16 96 21.66 98.34 24 110.34 36 98.34 48 96 50.34 96 56 96 80 104 80 104 53.66 116 41.66 128 53.66 128 80 136 80 136 56 136 50.34 133.66 48 121.66 36 133.66 24 136 21.66 136 16 136 0 128 0"/></g></g></svg>