<svg xmlns="http://www.w3.org/2000/svg" viewBox="0 0 376 112"><title>VIZHAXR</title><g id="Layer_2" data-name="Layer 2"><g id="Layer_1-2" data-name="Layer 1"><path d="M312,24V88h8V56h2.34L344,77.66V88h8V74.34L333.66,56H352V24Zm32,24H320V32h24Z"/><polygon points="200 48 176 48 176 24 168 24 168 48 168 56 168 88 176 88 176 56 200 56 200 88 208 88 208 56 208 48 208 24 200 24 200 48"/><path d="M216,24V88h8V56h24V88h8V24Zm32,24H224V32h24Z"/><polygon points="296 24 296 32 284 44 272 32 272 24 264 24 264 35.31 278.34 49.66 264 64 264 88 272 88 272 67.31 284 55.31 296 67.31 296 88 304 88 304 64 289.66 49.66 304 35.31 304 24 296 24"/><polygon points="56 24 56 64.4 44 76.4 32 64.4 32 24 24 24 24 67.72 44 87.72 64 67.72 64 24 56 24"/><polygon points="112 32 112 24 72 24 72 32 88 32 88 80 72 80 72 88 112 88 112 80 96 80 96 32 112 32"/><polygon points="120 24 120 32 152 32 152 36.69 120 68.69 120 88 160 88 160 80 128 80 128 72 160 40 160 24 120 24"/><path d="M368,0H0V112H376V0Zm0,104H8V8H368Z"/></g></g></svg>